<svg id="Layer_1" data-name="Layer 1" xmlns="http://www.w3.org/2000/svg" viewBox="0 0 306.59 339.8"><defs><style>.cls-1,.cls-4{fill:none;}.cls-1{stroke:#4167b0;stroke-width:5px;}.cls-1,.cls-3,.cls-4{stroke-miterlimit:10;}.cls-2,.cls-3{fill:#4167b0;}.cls-3,.cls-4{stroke:#fff;stroke-width:4px;}</style></defs><title>ETHShenzhen-logo</title><polygon class="cls-1" points="153.29 5 4.33 263.01 302.26 263.01 153.29 5"/><path class="cls-2" d="M79.39,327.36a72,72,0,0,1,12.39,9.26L89,340.54a55.79,55.79,0,0,0-12.32-9.83Zm12.82,22.72a119.12,119.12,0,0,1-9.12,19.22c-.71,1.14-.71,1.14-1.78,3.14l-4.2-3.71c3.85-3.91,7.48-10.82,11.32-21.43ZM83,310.13a68.61,68.61,0,0,1,11.25,10l-2.92,3.7A47.73,47.73,0,0,0,80,313.34ZM134.29,343a48.48,48.48,0,0,0,6.91-.43v4.7a67.9,67.9,0,0,0-6.91-.35H119.83a41.26,41.26,0,0,0,8.55,9,59.36,59.36,0,0,0,14.6,8,13,13,0,0,0-2.71,4.42,71.87,71.87,0,0,1-12.82-8.12,52.21,52.21,0,0,1-9.18-10c.21,3.14.28,4.92.28,7.41v8.9a50.14,50.14,0,0,0,.43,7.12h-5.06a49.08,49.08,0,0,0,.43-7.19v-8.76c0-2,.07-3.35.29-7.26a40.07,40.07,0,0,1-9,10.25,54.59,54.59,0,0,1-11.17,7.33,14.18,14.18,0,0,0-3.07-3.77,54,54,0,0,0,14.74-9.11,39.43,39.43,0,0,0,6.91-8.26H102.25a51.36,51.36,0,0,0-7,.42V342.6a48.33,48.33,0,0,0,7,.43h12.1V339.9a37.78,37.78,0,0,0-.35-5.2h4.91a28,28,0,0,0-.36,5.13V343Zm-20.58-26.7c-.64,7.19-1.85,11.1-4.56,14.59-2.56,3.28-5.84,5.49-11.32,7.48a11.78,11.78,0,0,0-2.63-3.77c4.91-1.36,8-3.14,10.32-5.77,2.64-3,3.56-6.05,4-12.53h-8.9v9H96.19a36.27,36.27,0,0,0,.22-4.13v-4.42a40.38,40.38,0,0,0-.22-4.55,66.37,66.37,0,0,0,7.2.28h28.19a70.46,70.46,0,0,0,8.12-.28,46.79,46.79,0,0,0-.21,4.91v2.35a36,36,0,0,0,.21,4.27h-4.48v-7.47H124.68c-.07.85-.07,1.28-.07,2v10.82a1.29,1.29,0,0,0,1.28,1.5,49.68,49.68,0,0,0,5.27.21c3.56,0,4.55-.28,5-1.56a13.57,13.57,0,0,0,.43-4,11.31,11.31,0,0,0,4.13,1.42c-.29,3.56-1,5.84-2.14,6.77s-3.49,1.28-8.76,1.28c-7.69,0-9.32-.71-9.32-4.27V318.39c0-.5,0-1-.08-2.06Z" transform="translate(-47.09 -34.28)"/><path class="cls-2" d="M262.56,317a47.7,47.7,0,0,0-.43-6.91h5.27a39.27,39.27,0,0,0-.42,6.76v12.32h3a27.7,27.7,0,0,0,5.69-.35v4.7a42.35,42.35,0,0,0-5.76-.29H267v20.72a74.36,74.36,0,0,0,8.33-4l.28,4.48a133.36,133.36,0,0,1-18.94,8.19c-1.14.43-2.13.85-3.06,1.28l-1.35-5c2.49-.43,3.7-.79,10.32-3.21V333.2H259a25.65,25.65,0,0,0-6,.43v-4.91a26.35,26.35,0,0,0,6,.42h3.56Zm21.51,16.87c0,11.4-.72,19.66-2.21,26.56a33.74,33.74,0,0,1-6.2,13.68,11.48,11.48,0,0,0-3.77-3c2.85-3.34,4.63-7.4,5.84-13.1,1.28-6.19,1.78-13,1.78-25.63V317a39.88,39.88,0,0,0-.43-7.05h5.41a37.4,37.4,0,0,0-.42,7.19Zm15.38-20.5a48.93,48.93,0,0,0-.36,7.33v38.67a42.15,42.15,0,0,0,.36,7.12h-5.27a45.43,45.43,0,0,0,.43-7.2V320.67a38.43,38.43,0,0,0-.43-7.33ZM315.18,310a50.81,50.81,0,0,0-.42,8.54v46.36a53.49,53.49,0,0,0,.42,8.69h-5.41a61.18,61.18,0,0,0,.43-8.69V318.53a58.74,58.74,0,0,0-.43-8.54Z" transform="translate(-47.09 -34.28)"/><path class="cls-3" d="M199.13,89.36l-1.84,6.24V276.75l1.84,1.83,84.09-49.7Z" transform="translate(-47.09 -34.28)"/><path class="cls-3" d="M199.13,89.36,115,228.88l84.09,49.7V89.36Z" transform="translate(-47.09 -34.28)"/><path class="cls-2" d="M199.13,294.5l-1,1.27V360.3l1,3,84.14-118.49Z" transform="translate(-47.09 -34.28)"/><path class="cls-2" d="M199.13,363.32V294.5L115,244.82Z" transform="translate(-47.09 -34.28)"/><path class="cls-3" d="M199.13,278.58l84.09-49.7-84.09-38.22Z" transform="translate(-47.09 -34.28)"/><path class="cls-3" d="M115,228.88l84.09,49.7V190.66Z" transform="translate(-47.09 -34.28)"/><line class="cls-4" x1="152.24" y1="253.42" x2="152.24" y2="337.29"/></svg>